<svg width="60" height="85" viewBox="0 0 60 85" fill="none" xmlns="http://www.w3.org/2000/svg">
<path d="M30.0848 0C30.5845 0.206653 30.9358 0.521074 31.32 0.889005C31.3976 0.961875 31.4752 1.03475 31.5552 1.10982C33.1233 2.59884 35.0438 4.6295 35.2091 6.90289C35.2128 7.23841 35.2151 7.57385 35.2154 7.9094C35.2172 8.02527 35.219 8.14114 35.2209 8.26053C35.2226 8.94208 35.155 9.48606 34.8923 10.1273C35.0619 10.1222 35.2316 10.1171 35.4063 10.1119C38.0985 10.0541 40.5781 10.5826 42.6462 12.4002C42.8211 12.5687 42.9946 12.7387 43.1631 12.9135C42.6903 13.2265 42.3458 13.3119 41.7969 13.4451C39.2604 14.1456 36.7816 15.7054 35.4479 18.0081C34.432 19.8741 33.7768 21.9585 34.2231 24.0965C34.4699 24.7689 34.9139 25.1242 35.4831 25.5245C37.3026 26.1267 39.5738 25.4632 41.2604 24.7197C43.9186 23.3357 45.458 21.096 46.4123 18.3392C46.5762 17.8048 46.7256 17.2697 46.8554 16.7261C48.4767 17.8647 49.3517 19.9124 49.7535 21.7954C49.849 22.4062 49.8402 23.0107 49.8277 23.6274C49.8264 23.7543 49.825 23.8812 49.8237 24.012C49.8202 24.3207 49.8149 24.6293 49.8092 24.938C49.929 24.8907 50.0487 24.8435 50.1721 24.7948C51.9349 24.2892 53.7648 24.5958 55.3581 25.43C56.2276 25.9224 57.0133 26.5063 57.7846 27.1376C57.8867 27.219 57.9887 27.3005 58.0938 27.3844C58.814 27.9798 59.5627 28.6508 60 29.4838C59.9612 30.4973 59.0752 31.2742 58.3973 31.9601C56.5913 33.5968 54.5352 34.935 52.0431 34.937C51.9264 34.9388 51.8097 34.9406 51.6894 34.9424C51.003 34.9441 50.4551 34.877 49.8092 34.6162C49.8169 34.8873 49.8169 34.8873 49.8248 35.1638C49.8792 37.8321 49.3525 40.2627 47.52 42.3148C47.3503 42.4885 47.1791 42.6607 47.0031 42.828C46.7179 42.3143 46.5579 41.7838 46.3846 41.2242C45.5036 38.5139 43.8683 36.1722 41.28 34.8545C39.594 34.0405 37.6215 33.5543 35.7502 33.9517C35.0652 34.1985 34.7092 34.6314 34.3015 35.2028C34.1591 35.6271 34.1347 35.8965 34.1331 36.3377C34.1323 36.4807 34.1314 36.6237 34.1305 36.7711C34.1304 36.9279 34.1302 37.0846 34.13 37.2461C34.1293 37.4114 34.1286 37.5767 34.1278 37.747C34.1257 38.2959 34.1247 38.8447 34.1238 39.3935C34.123 39.7755 34.1221 40.1576 34.1213 40.5396C34.1199 41.2397 34.119 41.9398 34.1186 42.6399C34.1179 43.6654 34.1153 44.6909 34.111 45.7164C34.1074 46.6079 34.1063 47.4995 34.1061 48.391C34.1056 48.7682 34.1044 49.1454 34.1025 49.5225C34.0849 53.1981 33.7259 64.0097 34.5306 66.3166C35.3353 68.6235 38.7148 70.7207 42.8013 71.9399C41.6663 73.5331 39.5358 74.5005 37.6321 74.8332C36.6018 74.9251 35.5638 74.8928 34.5306 74.8727C34.5782 74.9916 34.6258 75.1105 34.6748 75.233C35.184 76.9832 34.8752 78.8001 34.035 80.382C33.1486 81.925 31.9907 83.1953 30.6906 84.4043C30.5676 84.5198 30.4446 84.6353 30.3179 84.7543C29.9521 84.9908 29.9521 84.9908 29.5904 85C29.0907 84.7934 28.7393 84.4789 28.3552 84.111C28.2388 84.0017 28.2388 84.0017 28.12 83.8902C26.5519 82.4012 24.6314 80.3705 24.466 78.0971C24.4624 77.7616 24.4601 77.4261 24.4598 77.0906C24.458 76.9747 24.4562 76.8589 24.4543 76.7395C24.4526 76.0579 24.5202 75.5139 24.7829 74.8727C24.6133 74.8778 24.4436 74.8829 24.2688 74.8881C21.5767 74.9459 19.0971 74.4174 17.029 72.5998C16.8541 72.4313 16.6806 72.2613 16.5121 72.0865C17.0296 71.8034 17.5639 71.6445 18.1275 71.4725C20.8025 70.6153 23.0396 69.052 24.4413 66.6013C25.3348 64.8483 25.9277 53.1341 25.926 51.1901C25.927 51.0244 25.928 50.8587 25.929 50.6879C25.9318 50.1461 25.9324 49.6044 25.9327 49.0625C25.9336 48.6832 25.9346 48.3039 25.9357 47.9245C25.9374 47.1322 25.938 46.34 25.9378 45.5477C25.9376 44.6344 25.9408 43.7211 25.9454 42.8078C25.9498 41.9248 25.9508 41.0418 25.9506 40.1588C25.951 39.7848 25.9523 39.4109 25.9546 39.037C25.9575 38.5144 25.9566 37.9921 25.9548 37.4695C25.9565 37.3161 25.9582 37.1626 25.9599 37.0045C25.952 36.0952 25.8428 35.3651 25.2923 34.6162C24.3693 33.8868 23.6241 33.8056 22.4862 33.883C19.8367 34.2271 17.445 35.1522 15.6923 37.2557C14.4649 38.8861 13.6256 40.8459 13.1815 42.828C11.6357 41.7409 10.847 39.9108 10.3754 38.1356C10.3464 38.0278 10.3175 37.9201 10.2877 37.8091C10.197 37.1942 10.2124 36.5838 10.2185 35.9635C10.2191 35.8339 10.2198 35.7043 10.2205 35.5708C10.2222 35.2526 10.2249 34.9344 10.2277 34.6162C10.1079 34.6635 9.98819 34.7107 9.86481 34.7594C8.30866 35.2057 6.49272 35.0523 5.05846 34.3229C4.91491 34.2517 4.77136 34.1804 4.62346 34.107C3.17998 33.3317 2.07003 32.2449 0.923077 31.0968C0.833596 31.0076 0.744115 30.9184 0.651923 30.8265C0.0484186 30.1817 0.0484187 30.1816 0 29.7129C0.528259 28.6377 1.33191 27.8854 2.25231 27.1376C2.41109 26.9972 2.41109 26.9972 2.57308 26.854C4.13626 25.5181 5.92385 24.6189 7.99385 24.6172C8.11055 24.6154 8.22726 24.6136 8.3475 24.6117C9.03394 24.61 9.58183 24.6771 10.2277 24.938C10.2226 24.7573 10.2174 24.5765 10.2121 24.3904C10.1577 21.7221 10.6845 19.2914 12.5169 17.2394C12.6866 17.0657 12.8578 16.8934 13.0338 16.7261C13.32 17.2427 13.4848 17.7775 13.6615 18.3392C14.4952 20.8773 15.9362 23.1949 18.3709 24.4927C20.0797 25.3511 22.5279 26.1715 24.4442 25.5658C25.0586 25.2383 25.5969 24.763 25.8219 24.0942C26.2561 21.7558 25.5268 19.4182 24.2585 17.4593C23.2651 16.0932 22.0677 15.1568 20.5662 14.3799C20.431 14.3096 20.2958 14.2392 20.1565 14.1668C19.1042 13.6582 18.0023 13.3529 16.8738 13.0601C18.0088 11.4669 20.1394 10.4995 22.0431 10.1669C23.0734 10.0749 24.1114 10.1072 25.1446 10.1273C25.097 10.0084 25.0494 9.88953 25.0004 9.76703C24.4912 8.01679 24.8 6.19991 25.6402 4.61801C26.5265 3.07501 27.6845 1.80474 28.9846 0.595725C29.1691 0.422481 29.1691 0.422481 29.3573 0.245737C29.7231 0.00916502 29.7231 0.009165 30.0848 0ZM28.7388 6.18482C28.6224 6.71638 29.5 6.9286 29.7898 7.12121C29.7879 7.31023 28.7408 7.49926 28.7388 7.69402C28.8588 8.33871 29.0613 8.5552 29.5754 8.95421C30.0185 9.07641 30.0185 9.07641 30.4615 8.95421C30.9756 8.5552 31.1781 8.33871 31.2981 7.69402C31.2962 7.50499 30.3911 7.31596 30.3891 7.12121C30.391 6.93218 31.2961 6.74315 31.2981 6.54839C31.1781 5.9037 30.9756 5.68721 30.4615 5.28821C29.6482 5.11997 29 5.4439 28.7388 6.18482ZM29.1323 26.2577C28.7747 26.7903 28.8059 27.0472 28.8185 27.6783C28.8225 27.9377 28.8225 27.9377 28.8265 28.2024C28.83 28.3349 28.8334 28.4674 28.8369 28.604C28.7052 28.5972 28.5734 28.5904 28.4377 28.5833C28.2648 28.5781 28.092 28.5728 27.9138 28.5673C27.7425 28.5605 27.5712 28.5537 27.3946 28.5467C26.9073 28.5641 26.9073 28.5641 26.5673 28.872C26.259 29.2792 26.1997 29.5638 26.1785 30.0704C26.3439 30.5632 26.4658 30.6516 26.9169 30.9502C27.3901 30.9858 27.3901 30.9858 27.9046 30.9685C28.0788 30.9659 28.253 30.9632 28.4325 30.9605C28.566 30.9571 28.6994 30.9537 28.8369 30.9502C28.8266 31.1464 28.8266 31.1464 28.8162 31.3466C28.8108 31.5182 28.8055 31.6899 28.8 31.8667C28.7897 32.1219 28.7897 32.1219 28.7792 32.3822C28.7967 32.8661 28.7967 32.8661 29.1069 33.2037C29.517 33.5097 29.8036 33.5686 30.3138 33.5897C30.8102 33.4255 30.8992 33.3045 31.2 32.8565C31.2358 32.3867 31.2358 32.3867 31.2185 31.8759C31.2158 31.7029 31.2131 31.53 31.2104 31.3517C31.207 31.2192 31.2035 31.0867 31.2 30.9502C31.3317 30.957 31.4635 30.9638 31.5992 30.9708C31.7721 30.9761 31.945 30.9814 32.1231 30.9869C32.2944 30.9937 32.4658 31.0005 32.6423 31.0075C33.1296 30.9901 33.1296 30.9901 33.4696 30.6821C33.7779 30.275 33.8372 29.9904 33.8585 29.4838C33.693 28.991 33.5711 28.9026 33.12 28.604C32.6468 28.5684 32.6468 28.5684 32.1323 28.5856C31.9581 28.5883 31.7839 28.5909 31.6044 28.5937C31.4042 28.5988 31.4042 28.5988 31.2 28.604C31.2069 28.4732 31.2137 28.3424 31.2208 28.2076C31.2261 28.0359 31.2314 27.8643 31.2369 27.6875C31.2438 27.5173 31.2506 27.3472 31.2577 27.1719C31.2402 26.6881 31.2402 26.6881 30.93 26.3505C30.3425 25.912 29.7425 25.825 29.1323 26.2577ZM5.35385 29.3372C5.23077 29.7771 5.23077 29.7771 5.35385 30.217C5.75571 30.7274 5.97376 30.9285 6.62308 31.0476C6.90865 31.0447 6.90865 30.0288 7.2 30.0259C7.39038 30.0278 7.58077 31.0456 7.77692 31.0476C8.42624 30.9285 8.64428 30.7274 9.04615 30.217C9.16923 29.7771 9.16923 29.7771 9.04615 29.3372C8.64428 28.8267 8.42624 28.6257 7.77692 28.5066C7.49135 28.5094 7.49135 29.5839 7.2 29.5868C7.00962 29.5849 6.81923 28.5085 6.62308 28.5066C5.97376 28.6257 5.75571 28.8267 5.35385 29.3372ZM50.9908 29.3372C50.8677 29.7771 50.8677 29.7771 50.9908 30.217C51.3926 30.7274 51.6107 30.9285 52.26 31.0476C52.5456 31.0447 52.5456 30.0246 52.8369 30.0217C53.0273 30.0236 53.2177 31.0456 53.4138 31.0476C54.0632 30.9285 54.2812 30.7274 54.6831 30.217C54.8062 29.7771 54.8062 29.7771 54.6831 29.3372C54.2812 28.8267 54.0632 28.6257 53.4138 28.5066C53.1283 28.5094 53.1283 29.5857 52.8369 29.5886C52.6465 29.5867 52.4562 28.5085 52.26 28.5066C51.6107 28.6257 51.3926 28.8267 50.9908 29.3372ZM28.4752 76.779C28.3587 77.3106 28.5 77.5765 29.4122 77.8788C29 78.0971 28.3791 78.2569 28.3771 78.4516C28.4971 79.0963 28.6996 79.3128 29.2137 79.7118C29.6567 79.834 29.6567 79.834 30.0998 79.7118C30.6139 79.3128 30.8164 79.0963 30.9363 78.4516C30.9344 78.2626 29.9521 78.0735 29.9501 77.8788C29.952 77.6898 30.9344 77.5007 30.9363 77.306C30.8164 76.6613 30.6139 76.4448 30.0998 76.0458C29.2865 75.8776 28.9758 76.1598 28.4752 76.779Z" fill="white"/>
</svg>
