<svg width="40" height="40" viewBox="0 0 40 40" fill="none" xmlns="http://www.w3.org/2000/svg">
<rect width="40" height="40" fill="white"/>
<path d="M9.06818 13.8887C9.34613 12.6642 10.4413 11.75 11.75 11.75H28.25C29.5587 11.75 30.6539 12.6642 30.9318 13.8887L20 20.5693L9.06818 13.8887ZM9 15.4585V25.2258L16.9794 20.3348L9 15.4585ZM18.2969 21.1399L9.26382 26.6768C9.70483 27.6069 10.6523 28.25 11.75 28.25H28.25C29.3477 28.25 30.2952 27.6069 30.7362 26.6768L21.7031 21.1399L20 22.1807L18.2969 21.1399ZM23.0206 20.3348L31 25.2258V15.4585L23.0206 20.3348Z" fill="black"/>
</svg>
