<svg width="100" height="100" viewBox="0 0 100 100" fill="none" xmlns="http://www.w3.org/2000/svg">
<g clip-path="url(#clip0_52_7)">
<rect width="100" height="100" fill="white"/>
<rect width="100" height="100" fill="white"/>
<path d="M50.0848 8C50.5845 8.20665 50.9358 8.52107 51.32 8.88901C51.3976 8.96188 51.4752 9.03475 51.5552 9.10982C53.1233 10.5988 55.0438 12.6295 55.2091 14.9029C55.2128 15.2384 55.2151 15.5739 55.2154 15.9094C55.2172 16.0253 55.219 16.1411 55.2209 16.2605C55.2226 16.9421 55.155 17.4861 54.8923 18.1273C55.0619 18.1222 55.2316 18.1171 55.4063 18.1119C58.0985 18.0541 60.5781 18.5826 62.6462 20.4002C62.8211 20.5687 62.9946 20.7387 63.1631 20.9135C62.6903 21.2265 62.3458 21.3119 61.7969 21.4451C59.2604 22.1456 56.7816 23.7054 55.4479 26.0081C54.432 27.8741 53.7768 29.9585 54.2231 32.0965C54.4699 32.7689 54.9139 33.1242 55.4831 33.5245C57.3026 34.1267 59.5738 33.4632 61.2604 32.7197C63.9186 31.3357 65.458 29.096 66.4123 26.3392C66.5762 25.8048 66.7256 25.2697 66.8554 24.7261C68.4767 25.8647 69.3517 27.9124 69.7535 29.7954C69.849 30.4062 69.8402 31.0107 69.8277 31.6274C69.8264 31.7543 69.825 31.8812 69.8237 32.012C69.8202 32.3207 69.8149 32.6293 69.8092 32.938C69.929 32.8907 70.0487 32.8435 70.1721 32.7948C71.9349 32.2892 73.7648 32.5958 75.3581 33.43C76.2276 33.9224 77.0133 34.5063 77.7846 35.1376C77.8867 35.219 77.9887 35.3005 78.0938 35.3844C78.814 35.9798 79.5627 36.6508 80 37.4838C79.9612 38.4973 79.0752 39.2742 78.3973 39.9601C76.5913 41.5968 74.5352 42.935 72.0431 42.937C71.9264 42.9388 71.8097 42.9406 71.6894 42.9424C71.003 42.9441 70.4551 42.877 69.8092 42.6162C69.8169 42.8873 69.8169 42.8873 69.8248 43.1638C69.8792 45.8321 69.3525 48.2627 67.52 50.3148C67.3503 50.4885 67.1791 50.6607 67.0031 50.828C66.7179 50.3143 66.5579 49.7838 66.3846 49.2242C65.5036 46.5139 63.8683 44.1722 61.28 42.8545C59.594 42.0405 57.6215 41.5543 55.7502 41.9517C55.0652 42.1985 54.7092 42.6314 54.3015 43.2028C54.1591 43.6271 54.1347 43.8965 54.1331 44.3377C54.1323 44.4807 54.1314 44.6237 54.1305 44.7711C54.1304 44.9279 54.1302 45.0846 54.13 45.2461C54.1293 45.4114 54.1286 45.5767 54.1278 45.747C54.1257 46.2959 54.1247 46.8447 54.1238 47.3935C54.123 47.7755 54.1221 48.1576 54.1213 48.5396C54.1199 49.2397 54.119 49.9398 54.1186 50.6399C54.1179 51.6654 54.1153 52.6909 54.111 53.7163C54.1074 54.6079 54.1063 55.4994 54.1061 56.391C54.1056 56.7682 54.1044 57.1454 54.1025 57.5225C54.0849 61.1981 53.7259 72.0097 54.5306 74.3166C55.3353 76.6235 58.7148 78.7207 62.8013 79.9399C61.6663 81.5331 59.5358 82.5005 57.6321 82.8331C56.6018 82.9251 55.5638 82.8928 54.5306 82.8727C54.5782 82.9916 54.6258 83.1105 54.6748 83.233C55.184 84.9832 54.8752 86.8001 54.035 88.382C53.1486 89.925 51.9907 91.1953 50.6906 92.4043C50.5676 92.5198 50.4446 92.6353 50.3179 92.7543C49.9521 92.9908 49.9521 92.9908 49.5904 93C49.0907 92.7933 48.7393 92.4789 48.3552 92.111C48.2388 92.0017 48.2388 92.0017 48.12 91.8902C46.5519 90.4012 44.6314 88.3705 44.466 86.0971C44.4624 85.7616 44.4601 85.4261 44.4598 85.0906C44.458 84.9747 44.4562 84.8589 44.4543 84.7395C44.4526 84.0579 44.5202 83.5139 44.7829 82.8727C44.6133 82.8778 44.4436 82.8829 44.2688 82.8881C41.5767 82.9459 39.0971 82.4174 37.029 80.5998C36.8541 80.4313 36.6806 80.2613 36.5121 80.0865C37.0296 79.8034 37.5639 79.6445 38.1275 79.4725C40.8025 78.6153 43.0396 77.052 44.4413 74.6013C45.3348 72.8483 45.9277 61.1341 45.926 59.1901C45.927 59.0244 45.928 58.8587 45.929 58.6879C45.9318 58.1461 45.9324 57.6044 45.9327 57.0625C45.9336 56.6832 45.9346 56.3039 45.9357 55.9245C45.9374 55.1322 45.938 54.34 45.9378 53.5477C45.9376 52.6344 45.9408 51.7211 45.9454 50.8078C45.9498 49.9248 45.9508 49.0418 45.9506 48.1588C45.951 47.7848 45.9523 47.4109 45.9546 47.037C45.9575 46.5144 45.9566 45.9921 45.9548 45.4695C45.9565 45.3161 45.9582 45.1626 45.9599 45.0045C45.952 44.0952 45.8428 43.3651 45.2923 42.6162C44.3693 41.8868 43.6241 41.8056 42.4862 41.883C39.8367 42.2271 37.445 43.1522 35.6923 45.2557C34.4649 46.8861 33.6256 48.8459 33.1815 50.828C31.6357 49.7409 30.847 47.9108 30.3754 46.1356C30.3464 46.0278 30.3175 45.9201 30.2877 45.8091C30.197 45.1942 30.2124 44.5838 30.2185 43.9635C30.2191 43.8339 30.2198 43.7043 30.2205 43.5708C30.2222 43.2526 30.2249 42.9344 30.2277 42.6162C30.1079 42.6635 29.9882 42.7107 29.8648 42.7594C28.3087 43.2057 26.4927 43.0523 25.0585 42.3229C24.9149 42.2517 24.7714 42.1804 24.6235 42.107C23.18 41.3317 22.07 40.2449 20.9231 39.0968C20.8336 39.0076 20.7441 38.9184 20.6519 38.8265C20.0484 38.1817 20.0484 38.1816 20 37.7129C20.5283 36.6377 21.3319 35.8854 22.2523 35.1376C22.4111 34.9972 22.4111 34.9972 22.5731 34.854C24.1363 33.5181 25.9239 32.6189 27.9938 32.6172C28.1106 32.6154 28.2273 32.6136 28.3475 32.6117C29.0339 32.61 29.5818 32.6771 30.2277 32.938C30.2226 32.7573 30.2174 32.5765 30.2121 32.3904C30.1577 29.7221 30.6845 27.2914 32.5169 25.2394C32.6866 25.0657 32.8578 24.8934 33.0338 24.7261C33.32 25.2427 33.4848 25.7775 33.6615 26.3392C34.4952 28.8773 35.9362 31.1949 38.3709 32.4927C40.0797 33.3511 42.5279 34.1715 44.4442 33.5658C45.0586 33.2383 45.5969 32.763 45.8219 32.0942C46.2561 29.7558 45.5268 27.4182 44.2585 25.4593C43.2651 24.0932 42.0677 23.1568 40.5662 22.3799C40.431 22.3096 40.2958 22.2392 40.1565 22.1668C39.1042 21.6582 38.0023 21.3529 36.8738 21.0601C38.0088 19.4669 40.1394 18.4995 42.0431 18.1668C43.0734 18.0749 44.1114 18.1072 45.1446 18.1273C45.097 18.0084 45.0494 17.8895 45.0004 17.767C44.4912 16.0168 44.8 14.1999 45.6402 12.618C46.5265 11.075 47.6845 9.80474 48.9846 8.59573C49.1691 8.42248 49.1691 8.42248 49.3573 8.24574C49.7231 8.00917 49.7231 8.00917 50.0848 8ZM48.7388 14.1848C48.6224 14.7164 49.5 14.9286 49.7898 15.1212C49.7879 15.3102 48.7408 15.4993 48.7388 15.694C48.8588 16.3387 49.0613 16.5552 49.5754 16.9542C50.0185 17.0764 50.0185 17.0764 50.4615 16.9542C50.9756 16.5552 51.1781 16.3387 51.2981 15.694C51.2962 15.505 50.3911 15.316 50.3891 15.1212C50.391 14.9322 51.2961 14.7431 51.2981 14.5484C51.1781 13.9037 50.9756 13.6872 50.4615 13.2882C49.6482 13.12 49 13.4439 48.7388 14.1848ZM49.1323 34.2577C48.7747 34.7903 48.8059 35.0472 48.8185 35.6783C48.8225 35.9377 48.8225 35.9377 48.8265 36.2024C48.83 36.3349 48.8334 36.4674 48.8369 36.604C48.7052 36.5972 48.5734 36.5904 48.4377 36.5833C48.2648 36.5781 48.092 36.5728 47.9138 36.5673C47.7425 36.5605 47.5712 36.5537 47.3946 36.5467C46.9073 36.5641 46.9073 36.5641 46.5673 36.872C46.259 37.2792 46.1997 37.5638 46.1785 38.0704C46.3439 38.5632 46.4658 38.6516 46.9169 38.9502C47.3901 38.9858 47.3901 38.9858 47.9046 38.9685C48.0788 38.9659 48.253 38.9632 48.4325 38.9605C48.566 38.9571 48.6994 38.9537 48.8369 38.9502C48.8266 39.1464 48.8266 39.1464 48.8162 39.3466C48.8108 39.5182 48.8055 39.6899 48.8 39.8667C48.7897 40.1219 48.7897 40.1219 48.7792 40.3822C48.7967 40.8661 48.7967 40.8661 49.1069 41.2037C49.517 41.5097 49.8036 41.5686 50.3138 41.5897C50.8102 41.4255 50.8992 41.3045 51.2 40.8565C51.2358 40.3867 51.2358 40.3867 51.2185 39.8759C51.2158 39.7029 51.2131 39.53 51.2104 39.3517C51.207 39.2192 51.2035 39.0867 51.2 38.9502C51.3317 38.957 51.4635 38.9638 51.5992 38.9708C51.7721 38.9761 51.945 38.9814 52.1231 38.9869C52.2944 38.9937 52.4658 39.0005 52.6423 39.0075C53.1296 38.9901 53.1296 38.9901 53.4696 38.6821C53.7779 38.275 53.8372 37.9904 53.8585 37.4838C53.693 36.991 53.5711 36.9026 53.12 36.604C52.6468 36.5684 52.6468 36.5684 52.1323 36.5856C51.9581 36.5883 51.7839 36.5909 51.6044 36.5937C51.4042 36.5988 51.4042 36.5988 51.2 36.604C51.2069 36.4732 51.2137 36.3424 51.2208 36.2076C51.2261 36.0359 51.2314 35.8643 51.2369 35.6875C51.2438 35.5173 51.2506 35.3472 51.2577 35.1719C51.2402 34.6881 51.2402 34.6881 50.93 34.3505C50.3425 33.912 49.7425 33.825 49.1323 34.2577ZM25.3538 37.3372C25.2308 37.7771 25.2308 37.7771 25.3538 38.217C25.7557 38.7274 25.9738 38.9285 26.6231 39.0476C26.9087 39.0447 26.9087 38.0288 27.2 38.0259C27.3904 38.0278 27.5808 39.0456 27.7769 39.0476C28.4262 38.9285 28.6443 38.7274 29.0462 38.217C29.1692 37.7771 29.1692 37.7771 29.0462 37.3372C28.6443 36.8267 28.4262 36.6257 27.7769 36.5066C27.4913 36.5094 27.4913 37.5839 27.2 37.5868C27.0096 37.5849 26.8192 36.5085 26.6231 36.5066C25.9738 36.6257 25.7557 36.8267 25.3538 37.3372ZM70.9908 37.3372C70.8677 37.7771 70.8677 37.7771 70.9908 38.217C71.3926 38.7274 71.6107 38.9285 72.26 39.0476C72.5456 39.0447 72.5456 38.0246 72.8369 38.0217C73.0273 38.0236 73.2177 39.0456 73.4138 39.0476C74.0632 38.9285 74.2812 38.7274 74.6831 38.217C74.8062 37.7771 74.8062 37.7771 74.6831 37.3372C74.2812 36.8267 74.0632 36.6257 73.4138 36.5066C73.1283 36.5094 73.1283 37.5857 72.8369 37.5886C72.6465 37.5867 72.4562 36.5085 72.26 36.5066C71.6107 36.6257 71.3926 36.8267 70.9908 37.3372ZM48.4752 84.779C48.3587 85.3106 48.5 85.5765 49.4122 85.8788C49 86.0971 48.3791 86.2569 48.3771 86.4516C48.4971 87.0963 48.6996 87.3128 49.2137 87.7118C49.6567 87.834 49.6567 87.834 50.0998 87.7118C50.6139 87.3128 50.8164 87.0963 50.9363 86.4516C50.9344 86.2626 49.9521 86.0735 49.9501 85.8788C49.952 85.6898 50.9344 85.5007 50.9363 85.306C50.8164 84.6613 50.6139 84.4448 50.0998 84.0458C49.2865 83.8776 48.9758 84.1598 48.4752 84.779Z" fill="#151515"/>
</g>
<defs>
<clipPath id="clip0_52_7">
<rect width="100" height="100" fill="white"/>
</clipPath>
</defs>
</svg>
