<svg width="40" height="40" viewBox="0 0 40 40" fill="none" xmlns="http://www.w3.org/2000/svg">
<rect width="40" height="40" fill="white"/>
<path d="M10.5124 18.749C16.418 16.2088 20.3559 14.5341 22.3263 13.725C27.9521 11.4148 29.1211 11.0135 29.883 11.0001C30.0506 10.9974 30.4253 11.0384 30.668 11.2328C30.873 11.397 30.9294 11.6188 30.9563 11.7744C30.9833 11.9301 31.0169 12.2847 30.9902 12.5617C30.6854 15.7242 29.3662 23.3986 28.6951 26.9406C28.4111 28.4394 27.852 28.9419 27.3107 28.9911C26.1343 29.098 25.2409 28.2235 24.1015 27.4861C22.3186 26.3323 21.3113 25.614 19.5807 24.488C17.5806 23.1868 18.8772 22.4716 20.017 21.3028C20.3153 20.9969 25.4986 16.3423 25.5989 15.9201C25.6115 15.8673 25.6231 15.6705 25.5046 15.5665C25.3862 15.4626 25.2114 15.4981 25.0852 15.5264C24.9064 15.5665 22.0581 17.4251 16.5403 21.1023C15.7319 21.6504 14.9996 21.9174 14.3435 21.9035C13.6202 21.888 12.2288 21.4997 11.1945 21.1678C9.92583 20.7606 8.91753 20.5454 9.00533 19.8539C9.05106 19.4938 9.55341 19.1255 10.5124 18.749Z" fill="black"/>
</svg>
